# xmcd
#
# Track frame offsets:
#	150
#	11313
#	24577
#	36924
#	47336
#	58969
#	72308
#	83803
#	94353
#	106785
#	121116
#	130683
#	143766
#	156900
#	167854
#	180068
#	193659
#	205536
#	219129
#	232030
#	243802
#	257112
#	267045
#	276830
#	288888
#
# Disc length: 4015 seconds
#
# Revision: 1
# Processed by: cddbd v1.5.2PL0 Copyright (c) Steve Scherf et al.
# Submitted via: audiograbber 1.83.01
#
DISCID=4f0fad19
DTITLE=Various Artist - Just For A Day - The Apollo Records Story  [CD2)
DYEAR=2014
DGENRE=Oldies
TTITLE0=Vocaltones  - I'LL Never Let You Go 
TTITLE1=Gentlemen  - Tired Of You 
TTITLE2=Five Royales  - Six O'Clock In The Morning 
TTITLE3=Chesters  - The Fires Burn No More 
TTITLE4=Screamin' Jay Hawkins - Baptize Me In Wine 
TTITLE5=Larks  - Darlin' 
TTITLE6=Opals  - My Hearts Desire 
TTITLE7=Carmen Taylor - Teen-Age Ball 
TTITLE8=Claremonts  - Why Keep Me Dreaming 
TTITLE9=Doc Pomus - Blues In The Red 
TTITLE10=Keynotes  - I Don't Know 
TTITLE11=Romeos  - Love Me 
TTITLE12=Dinah Washington - Rich Man's Blues 
TTITLE13=Sparks Of Rhythm  - Don't Love You Anymore 
TTITLE14=Wynonie Harris - She's Gone With The Wind 
TTITLE15=Eddie Mack - Heart Throbbin' Blues 
TTITLE16=Mahalia Jackson - Didn't It Rain 
TTITLE17=Champion Jack Dupree - My Baby's Comin' Back Home 
TTITLE18=Bill Harvey and His Orchestra - Walk Right In 
TTITLE19=Sunnyland Slim - I'm Just A Lonesome Man 
TTITLE20=Casanovas  - I Don't Want You To Go 
TTITLE21=Solomon Burke - They Always Say 
TTITLE22=Keynotes  - In The Evening 
TTITLE23=Dinah Washington - Pacific Coast Blues 
TTITLE24=Cellos   - Under Your Spell 
EXTD=
EXTT0=
EXTT1=
EXTT2=
EXTT3=
EXTT4=
EXTT5=
EXTT6=
EXTT7=
EXTT8=
EXTT9=
EXTT10=
EXTT11=
EXTT12=
EXTT13=
EXTT14=
EXTT15=
EXTT16=
EXTT17=
EXTT18=
EXTT19=
EXTT20=
EXTT21=
EXTT22=
EXTT23=
EXTT24=
PLAYORDER=
